<?xml version="1.0" encoding="UTF-8"?>
<svg version="1.1" viewBox="0 0 209 99" xmlns="http://www.w3.org/2000/svg">
    <title id="logo-title">WissWeit-Logo</title>
    <desc id="logo-desc">Go to startpage.</desc>
    <g fill-rule="evenodd">
        <path d="m11.138 25.094h6.306l0.856 20.066 10.345-20.066h8.27l1.789 20.066 8.813-19.671 4.047-7.946-29.039-14.797-11.387 22.348zm31.223 29.114h-9.905l-1.945-19.625-9.826 19.625h-6.448l29.973 15.273 18.476-36.261-7.386-3.765-12.939 24.753zm-42.361-7.256v3e-3l10.471 5.334-2.062-21.839-8.409 16.502z" fill="#154B99"/>
        <path d="m60.503-2e-4l-6.451 12.662h3.624l0.493 11.57 5.965-11.57h4.769l1.032 11.57 5.201-11.57h5.682l-8.776 16.787h-5.711l-1.121-11.316-5.666 11.316h-4.274l17.737 9.031 12.985-25.489-25.489-12.991zm-12.986 25.488l6.166 3.154-1.215-12.88-4.951 9.726z"/>
        <g transform="translate(59 55)">
            <polygon points="19.429 0.9433 12.984 14.198 9.3162 14.198 8.7472 5.4123 4.4472 14.198 0.6362 14.198 0.0312 0.9433 3.6012 0.9433 3.6282 10.067 8.0792 0.9433 11.489 0.9433 11.889 10.067 15.949 0.9433"/>
            <path d="m24.985 0.3466l-0.562 2.431h-3.4l0.561-2.431h3.401zm-0.979 3.854l-2.315 9.998h-3.223l2.315-9.998h3.223z"/>
            <path d="m28.554 14.474c-0.854 0-1.682-0.08-2.483-0.24s-1.415-0.347-1.843-0.561l0.614-2.635h0.294c0.131 0.113 0.293 0.238 0.49 0.374 0.201 0.137 0.487 0.279 0.854 0.427 0.314 0.137 0.679 0.256 1.095 0.357 0.416 0.094 0.864 0.142 1.344 0.142 0.719 0 1.256-0.083 1.612-0.25 0.362-0.166 0.543-0.403 0.543-0.712 0-0.237-0.127-0.418-0.383-0.543-0.255-0.124-0.783-0.278-1.584-0.463-1.36-0.314-2.291-0.694-2.795-1.139-0.499-0.444-0.748-0.999-0.748-1.664 0-1.128 0.504-2.015 1.513-2.662 1.008-0.653 2.373-0.979 4.094-0.98 0.748 0 1.496 0.078 2.244 0.232 0.748 0.149 1.297 0.309 1.647 0.481l-0.587 2.528h-0.276c-0.422-0.327-0.932-0.59-1.532-0.793-0.593-0.207-1.205-0.31-1.834-0.311-0.682 0-1.207 0.083-1.575 0.249-0.362 0.161-0.544 0.41-0.544 0.748 0 0.262 0.158 0.463 0.473 0.605 0.314 0.137 0.809 0.28 1.486 0.428 1.258 0.273 2.163 0.617 2.715 1.032 0.559 0.416 0.837 0.997 0.838 1.746 0 1.115-0.511 1.997-1.531 2.643-1.022 0.641-2.402 0.961-4.141 0.961"/>
            <path d="m40.566 14.474c-0.854 0-1.682-0.08-2.483-0.24-0.802-0.16-1.415-0.347-1.843-0.561l0.614-2.635h0.294c0.131 0.113 0.293 0.238 0.49 0.374 0.201 0.137 0.487 0.279 0.854 0.427 0.314 0.137 0.679 0.256 1.095 0.357 0.416 0.094 0.864 0.142 1.344 0.142 0.719 0 1.256-0.083 1.612-0.25 0.362-0.166 0.543-0.403 0.543-0.712 0-0.237-0.127-0.418-0.383-0.543-0.255-0.124-0.783-0.278-1.584-0.463-1.36-0.314-2.291-0.694-2.795-1.139-0.499-0.444-0.748-0.999-0.748-1.664 0-1.128 0.504-2.015 1.513-2.662 1.008-0.653 2.373-0.979 4.094-0.98 0.748 0 1.496 0.078 2.244 0.232 0.748 0.149 1.297 0.309 1.647 0.481l-0.587 2.528h-0.276c-0.422-0.327-0.932-0.59-1.532-0.793-0.593-0.207-1.205-0.31-1.834-0.311-0.681 0-1.207 0.083-1.575 0.249-0.362 0.161-0.544 0.41-0.544 0.748 0 0.262 0.158 0.463 0.473 0.605 0.314 0.137 0.809 0.28 1.486 0.428 1.258 0.273 2.163 0.617 2.715 1.032 0.559 0.416 0.838 0.997 0.838 1.746 0 1.115-0.511 1.997-1.531 2.643-1.022 0.641-2.402 0.961-4.141 0.961"/>
            <polygon points="68.466 0.9433 62.02 14.198 58.353 14.198 57.782 5.4123 53.483 14.198 49.672 14.198 49.068 0.9433 52.637 0.9433 52.663 10.067 57.114 0.9433 60.525 0.9433 60.925 10.067 64.985 0.9433"/>
            <path d="m72.55 14.465c-1.703 0-3.018-0.376-3.943-1.13-0.926-0.754-1.389-1.796-1.389-3.125 0-0.908 0.151-1.741 0.453-2.501 0.303-0.76 0.74-1.428 1.31-2.003 0.546-0.558 1.227-1 2.048-1.327 0.818-0.326 1.717-0.489 2.697-0.489 1.489 0 2.611 0.303 3.365 0.908 0.76 0.6 1.139 1.486 1.139 2.661 0 0.404-0.041 0.799-0.124 1.185-0.077 0.385-0.181 0.768-0.312 1.148h-7.425v0.107 0.097c0 0.695 0.244 1.238 0.73 1.629 0.486 0.393 1.232 0.588 2.234 0.588 0.701 0 1.363-0.118 1.987-0.355 0.628-0.238 1.173-0.502 1.637-0.793h0.357l-0.598 2.573c-0.623 0.272-1.278 0.477-1.967 0.614-0.688 0.142-1.422 0.213-2.199 0.213zm2.449-6.552c0.018-0.106 0.03-0.204 0.035-0.294 0.012-0.089 0.018-0.18 0.018-0.275 0-0.469-0.147-0.828-0.436-1.077-0.291-0.249-0.711-0.374-1.255-0.374-0.659 0-1.214 0.177-1.665 0.534-0.445 0.356-0.784 0.851-1.015 1.486h4.318z"/>
            <path d="m86.128 0.3466l-0.561 2.431h-3.401l0.562-2.431h3.4zm-0.979 3.854l-2.316 9.998h-3.223l2.316-9.998h3.223z"/>
            <path d="m90.278 14.394c-1.11 0-1.902-0.181-2.377-0.543-0.476-0.367-0.712-0.91-0.712-1.629 0-0.189 0.015-0.373 0.044-0.552 0.03-0.177 0.067-0.385 0.116-0.623l1.086-4.736h-1.318l0.49-2.109h1.318l0.659-2.858h3.214l-0.66 2.858h3.01l-0.49 2.109h-3.009l-0.828 3.605c-0.06 0.25-0.116 0.502-0.169 0.757-0.054 0.249-0.08 0.463-0.08 0.641 0 0.356 0.098 0.605 0.293 0.748 0.202 0.137 0.511 0.205 0.926 0.205 0.166 0 0.383-0.029 0.65-0.089 0.274-0.065 0.49-0.137 0.65-0.214h0.267l-0.499 2.146c-0.361 0.089-0.744 0.157-1.148 0.204-0.397 0.054-0.875 0.08-1.433 0.08"/>
        </g>
        <g transform="translate(58 80)">
            <path d="m1.1509 13.799h1.3l-1.006 4.812h-1.3l1.006-4.812zm0.38-1.83h1.3l-0.243 1.178h-1.301l0.244-1.178z"/>
            <path d="m3.9312 13.799h1.232l-0.127 0.625c0.309-0.265 0.596-0.454 0.863-0.566 0.268-0.115 0.552-0.172 0.846-0.172 0.395 0 0.707 0.113 0.933 0.34 0.231 0.226 0.346 0.527 0.346 0.901 0 0.17-0.05 0.49-0.151 0.961l-0.565 2.723h-1.301l0.57-2.732c0.085-0.408 0.127-0.651 0.127-0.73 0-0.165-0.048-0.296-0.149-0.389-0.097-0.097-0.231-0.145-0.407-0.146-0.191 0-0.403 0.081-0.635 0.241-0.231 0.16-0.414 0.371-0.549 0.634-0.096 0.187-0.205 0.569-0.326 1.146l-0.411 1.976h-1.301l1.005-4.812z"/>
            <polygon points="16.115 15.644 13.546 15.644 12.926 18.61 11.556 18.61 12.948 11.97 14.312 11.97 13.778 14.534 16.345 14.534 16.885 11.97 18.248 11.97 16.862 18.61 15.494 18.61"/>
            <path d="m22 15.815l5e-3 -0.131c0-0.357-0.081-0.624-0.24-0.802-0.16-0.178-0.375-0.267-0.644-0.268-0.268 0-0.511 0.102-0.725 0.304-0.211 0.203-0.354 0.502-0.431 0.897h2.035zm1.096 0.793h-3.262l-3e-3 0.118c0 0.32 0.09 0.578 0.271 0.775 0.184 0.196 0.407 0.294 0.671 0.294 0.432 0 0.769-0.224 1.01-0.67l1.164 0.194c-0.227 0.469-0.53 0.82-0.91 1.056-0.378 0.232-0.803 0.349-1.274 0.349-0.646 0-1.172-0.204-1.577-0.612-0.404-0.411-0.606-0.953-0.606-1.627 0-0.658 0.182-1.244 0.547-1.757 0.499-0.695 1.211-1.042 2.135-1.042 0.588 0 1.057 0.183 1.404 0.548 0.347 0.363 0.521 0.872 0.521 1.527 0 0.314-0.03 0.596-0.091 0.847z"/>
            <path d="m23.589 17.265l1.259-0.199c0.113 0.266 0.252 0.454 0.417 0.566 0.167 0.109 0.393 0.163 0.679 0.163 0.297 0 0.535-0.066 0.713-0.199 0.123-0.091 0.185-0.201 0.185-0.331l-0.095-0.235c-0.067-0.067-0.246-0.148-0.539-0.245-0.786-0.259-1.271-0.465-1.459-0.616-0.293-0.236-0.439-0.544-0.439-0.925 0-0.38 0.142-0.708 0.425-0.982 0.396-0.384 0.983-0.576 1.763-0.576 0.619 0 1.087 0.113 1.403 0.34 0.318 0.226 0.52 0.533 0.604 0.92l-1.201 0.208c-0.063-0.175-0.166-0.306-0.308-0.394-0.193-0.118-0.427-0.177-0.698-0.177s-0.467 0.045-0.588 0.136c-0.119 0.091-0.177 0.195-0.177 0.313 0 0.12 0.06 0.22 0.181 0.298 0.076 0.049 0.318 0.134 0.729 0.254 0.635 0.184 1.059 0.366 1.274 0.544 0.302 0.251 0.453 0.553 0.453 0.906 0 0.456-0.192 0.852-0.576 1.187-0.384 0.336-0.924 0.503-1.622 0.503-0.695 0-1.233-0.127-1.613-0.38-0.377-0.257-0.634-0.617-0.77-1.079"/>
            <path d="m28.935 17.265l1.26-0.199c0.112 0.266 0.251 0.454 0.417 0.566 0.167 0.109 0.392 0.163 0.679 0.163 0.295 0 0.534-0.066 0.711-0.199 0.124-0.091 0.187-0.201 0.187-0.331l-0.096-0.235c-0.066-0.067-0.246-0.148-0.539-0.245-0.786-0.259-1.271-0.465-1.459-0.616-0.294-0.236-0.438-0.544-0.438-0.925 0-0.38 0.14-0.708 0.424-0.982 0.396-0.384 0.983-0.576 1.763-0.576 0.619 0 1.087 0.113 1.404 0.34 0.318 0.226 0.518 0.533 0.603 0.92l-1.2 0.208c-0.065-0.175-0.166-0.306-0.309-0.394-0.194-0.118-0.426-0.177-0.698-0.177-0.271 0-0.468 0.045-0.589 0.136-0.118 0.091-0.176 0.195-0.176 0.313 0 0.12 0.06 0.22 0.181 0.298 0.075 0.049 0.318 0.134 0.729 0.254 0.634 0.184 1.059 0.366 1.275 0.544 0.301 0.251 0.451 0.553 0.452 0.906 0 0.456-0.191 0.852-0.575 1.187-0.385 0.336-0.925 0.503-1.622 0.503-0.696 0-1.234-0.127-1.613-0.38-0.377-0.257-0.634-0.617-0.771-1.079"/>
            <path d="m38.038 15.815l4e-3 -0.131c0-0.357-0.08-0.624-0.239-0.802-0.161-0.178-0.375-0.267-0.644-0.268-0.269 0-0.511 0.102-0.725 0.304-0.211 0.203-0.354 0.502-0.431 0.897h2.035zm1.096 0.793h-3.263l-3e-3 0.118c0 0.32 0.09 0.578 0.272 0.775 0.184 0.196 0.407 0.294 0.67 0.294 0.432 0 0.769-0.224 1.011-0.67l1.164 0.194c-0.227 0.469-0.53 0.82-0.91 1.056-0.379 0.232-0.803 0.349-1.274 0.349-0.647 0-1.172-0.204-1.577-0.612-0.404-0.411-0.607-0.953-0.607-1.627 0-0.658 0.183-1.244 0.548-1.757 0.499-0.695 1.21-1.042 2.134-1.042 0.589 0 1.057 0.183 1.405 0.548 0.347 0.363 0.52 0.872 0.52 1.527 0 0.314-0.029 0.596-0.09 0.847z"/>
            <path d="m40.819 13.799h1.231l-0.127 0.625c0.31-0.265 0.596-0.454 0.862-0.566 0.269-0.115 0.551-0.172 0.847-0.172 0.396 0 0.708 0.113 0.934 0.34 0.23 0.226 0.344 0.527 0.344 0.901 0 0.17-0.05 0.49-0.151 0.961l-0.565 2.723h-1.3l0.571-2.732c0.083-0.408 0.125-0.651 0.125-0.73 0-0.165-0.048-0.296-0.147-0.389-0.097-0.097-0.234-0.145-0.408-0.146-0.192 0-0.403 0.081-0.634 0.241-0.233 0.16-0.415 0.371-0.549 0.634-0.096 0.187-0.205 0.569-0.326 1.146l-0.412 1.976h-1.301l1.006-4.812z"/>
            <polygon points="6.4702 7.0126 5.0872 7.0126 4.9392 2.1566 2.5192 7.0126 1.1102 7.0126 0.8612 0.3706 2.1982 0.3706 2.2562 5.0196 4.5342 0.3706 6.0172 0.3706 6.1702 4.9696 8.3592 0.3706 9.6822 0.3706"/>
            <path d="m10.01 2.2016h1.3l-1.005 4.811h-1.301l1.006-4.811zm0.38-1.831h1.301l-0.244 1.179h-1.301l0.244-1.179z"/>
            <path d="m11.601 5.6674l1.26-0.199c0.11 0.265 0.25 0.454 0.417 0.566 0.165 0.109 0.39 0.163 0.678 0.163 0.296 0 0.534-0.066 0.711-0.199 0.123-0.091 0.186-0.201 0.187-0.331l-0.096-0.236c-0.066-0.066-0.247-0.148-0.539-0.244-0.786-0.26-1.271-0.465-1.459-0.617-0.293-0.235-0.439-0.543-0.439-0.924 0-0.38 0.141-0.708 0.426-0.983 0.395-0.383 0.983-0.575 1.762-0.575 0.618 0 1.086 0.113 1.404 0.34 0.318 0.226 0.518 0.533 0.603 0.919l-1.2 0.209c-0.064-0.175-0.166-0.307-0.309-0.394-0.192-0.118-0.426-0.177-0.697-0.177s-0.469 0.045-0.589 0.136c-0.117 0.09-0.178 0.194-0.178 0.313 0 0.12 0.061 0.22 0.183 0.298 0.074 0.048 0.317 0.133 0.729 0.254 0.634 0.184 1.058 0.366 1.273 0.544 0.303 0.25 0.452 0.553 0.452 0.906 0 0.456-0.191 0.852-0.574 1.187-0.385 0.335-0.925 0.502-1.622 0.502-0.696 0-1.233-0.126-1.612-0.38-0.378-0.257-0.635-0.616-0.771-1.078"/>
            <path d="m16.947 5.6674l1.259-0.199c0.112 0.265 0.251 0.454 0.416 0.566 0.167 0.109 0.393 0.163 0.681 0.163 0.296 0 0.532-0.066 0.711-0.199 0.123-0.091 0.185-0.201 0.185-0.331l-0.094-0.236c-0.067-0.066-0.247-0.148-0.54-0.244-0.785-0.26-1.271-0.465-1.458-0.617-0.293-0.235-0.44-0.543-0.44-0.924 0-0.38 0.142-0.708 0.426-0.983 0.396-0.383 0.982-0.575 1.762-0.575 0.619 0 1.087 0.113 1.405 0.34 0.316 0.226 0.518 0.533 0.603 0.919l-1.201 0.209c-0.064-0.175-0.166-0.307-0.308-0.394-0.194-0.118-0.427-0.177-0.699-0.177-0.27 0-0.467 0.045-0.587 0.136-0.12 0.09-0.178 0.194-0.178 0.313 0 0.12 0.06 0.22 0.182 0.298 0.075 0.048 0.318 0.133 0.729 0.254 0.634 0.184 1.059 0.366 1.273 0.544 0.301 0.25 0.453 0.553 0.453 0.906 0 0.456-0.192 0.852-0.575 1.187-0.384 0.335-0.924 0.502-1.623 0.502-0.694 0-1.232-0.126-1.612-0.38-0.378-0.257-0.635-0.616-0.77-1.078"/>
            <path d="m26.048 4.2172l4e-3 -0.131c0-0.356-0.08-0.624-0.24-0.802s-0.374-0.267-0.643-0.267-0.511 0.101-0.725 0.304c-0.211 0.202-0.355 0.501-0.431 0.896h2.035zm1.096 0.793h-3.262l-4e-3 0.118c0 0.32 0.09 0.579 0.271 0.775 0.185 0.196 0.408 0.294 0.67 0.294 0.433 0 0.77-0.224 1.012-0.67l1.163 0.194c-0.226 0.469-0.529 0.82-0.91 1.056-0.378 0.233-0.802 0.349-1.273 0.349-0.647 0-1.173-0.204-1.577-0.612-0.404-0.41-0.607-0.952-0.607-1.626 0-0.658 0.183-1.244 0.548-1.758 0.499-0.694 1.21-1.042 2.134-1.042 0.589 0 1.058 0.183 1.405 0.548 0.347 0.363 0.521 0.872 0.521 1.527 0 0.314-0.03 0.596-0.091 0.847z"/>
            <path d="m28.831 2.2016h1.231l-0.127 0.625c0.309-0.266 0.595-0.454 0.862-0.566 0.268-0.115 0.552-0.172 0.847-0.172 0.395 0 0.707 0.113 0.932 0.34 0.231 0.226 0.346 0.526 0.346 0.901 0 0.169-0.051 0.489-0.151 0.96l-0.565 2.723h-1.301l0.572-2.732c0.083-0.407 0.125-0.65 0.125-0.729 0-0.166-0.048-0.296-0.149-0.39-0.097-0.097-0.231-0.144-0.407-0.145-0.192 0-0.403 0.081-0.634 0.241-0.232 0.16-0.416 0.371-0.549 0.633-0.096 0.188-0.206 0.57-0.326 1.147l-0.412 1.975h-1.301l1.007-4.811z"/>
            <path d="m33.492 5.6674l1.259-0.199c0.113 0.265 0.251 0.454 0.417 0.566 0.166 0.109 0.392 0.163 0.679 0.163 0.296 0 0.534-0.066 0.712-0.199 0.124-0.091 0.186-0.201 0.186-0.331l-0.096-0.236c-0.066-0.066-0.245-0.148-0.538-0.244-0.786-0.26-1.272-0.465-1.459-0.617-0.293-0.235-0.439-0.543-0.439-0.924 0-0.38 0.141-0.708 0.425-0.983 0.396-0.383 0.983-0.575 1.763-0.575 0.619 0 1.087 0.113 1.403 0.34 0.318 0.226 0.519 0.533 0.603 0.919l-1.2 0.209c-0.064-0.175-0.167-0.307-0.308-0.394-0.194-0.118-0.427-0.177-0.698-0.177-0.272 0-0.468 0.045-0.589 0.136-0.118 0.09-0.177 0.194-0.177 0.313 0 0.12 0.061 0.22 0.182 0.298 0.075 0.048 0.318 0.133 0.729 0.254 0.634 0.184 1.059 0.366 1.273 0.544 0.302 0.25 0.453 0.553 0.454 0.906 0 0.456-0.193 0.852-0.576 1.187-0.384 0.335-0.924 0.502-1.622 0.502-0.696 0-1.232-0.126-1.613-0.38-0.377-0.257-0.634-0.616-0.77-1.078"/>
            <path d="m42.267 5.2006l1.265 0.204c-0.209 0.562-0.518 0.989-0.925 1.282s-0.881 0.439-1.418 0.439c-0.613 0-1.101-0.182-1.459-0.548-0.359-0.365-0.539-0.868-0.539-1.508 0-0.522 0.108-1.017 0.326-1.482s0.546-0.83 0.982-1.096c0.439-0.269 0.919-0.403 1.442-0.403 0.567 0 1.02 0.148 1.358 0.444 0.339 0.296 0.53 0.686 0.572 1.168l-1.237 0.132c-0.03-0.269-0.113-0.467-0.25-0.594-0.133-0.126-0.307-0.19-0.525-0.19-0.25 0-0.485 0.094-0.701 0.281-0.218 0.187-0.386 0.468-0.504 0.843-0.115 0.371-0.172 0.72-0.172 1.046 0 0.284 0.069 0.503 0.209 0.657 0.139 0.154 0.311 0.231 0.52 0.231 0.208 0 0.41-0.075 0.603-0.226 0.193-0.152 0.345-0.378 0.453-0.68"/>
            <path d="m45.669 7.0126h-1.301l1.392-6.642h1.3l-0.498 2.365c0.293-0.229 0.565-0.394 0.82-0.494 0.254-0.102 0.525-0.153 0.815-0.153 0.39 0 0.699 0.112 0.924 0.335 0.228 0.223 0.341 0.516 0.341 0.879 0 0.193-0.043 0.492-0.128 0.897l-0.589 2.813h-1.3l0.603-2.868c0.062-0.311 0.096-0.51 0.096-0.597 0-0.16-0.051-0.289-0.152-0.386-0.098-0.097-0.234-0.144-0.407-0.145-0.218 0-0.426 0.076-0.625 0.227-0.26 0.199-0.458 0.444-0.594 0.734-0.075 0.16-0.175 0.536-0.299 1.128l-0.398 1.907z"/>
            <path d="m53.276 4.7699c-0.078 0.021-0.183 0.041-0.313 0.059-0.652 0.079-1.078 0.193-1.277 0.344-0.142 0.109-0.213 0.256-0.213 0.44 0 0.151 0.054 0.279 0.163 0.385 0.109 0.103 0.252 0.154 0.43 0.154 0.197 0 0.38-0.047 0.553-0.14 0.175-0.096 0.305-0.22 0.389-0.367 0.089-0.151 0.165-0.385 0.232-0.703l0.036-0.172zm-1.237-1.205l-1.268-0.108c0.144-0.429 0.397-0.765 0.756-1.006 0.363-0.242 0.841-0.363 1.436-0.363 0.62 0 1.077 0.125 1.373 0.376 0.296 0.248 0.444 0.552 0.444 0.911 0 0.145-0.014 0.299-0.041 0.462-0.024 0.163-0.113 0.592-0.267 1.287-0.127 0.574-0.19 0.975-0.19 1.205 0 0.205 0.036 0.433 0.109 0.684h-1.265c-0.051-0.175-0.083-0.356-0.095-0.544-0.19 0.212-0.409 0.375-0.657 0.489-0.247 0.112-0.495 0.168-0.747 0.168-0.398 0-0.728-0.129-0.988-0.389-0.26-0.263-0.389-0.6-0.389-1.011 0-0.459 0.142-0.826 0.426-1.101 0.287-0.274 0.797-0.44 1.531-0.498 0.618-0.051 1.033-0.113 1.241-0.186 0.056-0.181 0.082-0.326 0.082-0.435 0-0.138-0.056-0.255-0.168-0.348-0.111-0.094-0.278-0.14-0.499-0.141-0.232 0-0.417 0.048-0.552 0.145-0.133 0.093-0.223 0.228-0.272 0.403z"/>
            <path d="m58.903 2.2016l-0.199 0.951h-0.92l-0.807 3.86h-1.3l0.807-3.86h-0.725l0.199-0.951h0.725l0.104-0.494c0.085-0.404 0.165-0.678 0.241-0.82 0.102-0.193 0.254-0.346 0.457-0.457 0.206-0.115 0.473-0.173 0.802-0.173 0.399 0 0.818 0.073 1.26 0.218l-0.254 0.929c-0.311-0.106-0.564-0.159-0.757-0.159-0.149 0-0.258 0.047-0.331 0.141-0.048 0.06-0.097 0.218-0.149 0.475l-0.073 0.34h0.92z"/>
            <path d="m59.152 3.1664l0.199-0.965h0.634l0.16-0.77 1.489-0.897-0.348 1.667h0.793l-0.2 0.965h-0.797l-0.421 2.016c-0.076 0.365-0.114 0.574-0.114 0.625 0 0.1 0.032 0.178 0.096 0.236 0.063 0.054 0.178 0.081 0.344 0.081 0.057 0 0.201-0.01 0.43-0.031l-0.203 0.965c-0.225 0.045-0.453 0.067-0.689 0.067-0.459 0-0.793-0.087-1.001-0.262-0.209-0.178-0.313-0.425-0.313-0.739 0-0.147 0.055-0.488 0.168-1.023l0.403-1.935h-0.63z"/>
            <polygon points="62.091 7.0126 63.483 0.3706 64.779 0.3706 63.393 7.0126"/>
            <path d="m65.871 2.2016h1.301l-1.006 4.811h-1.302l1.007-4.811zm0.381-1.831h1.3l-0.244 1.179h-1.301l0.245-1.179z"/>
            <path d="m70.89 5.2006l1.263 0.204c-0.207 0.562-0.515 0.989-0.924 1.282-0.407 0.293-0.88 0.439-1.418 0.439-0.612 0-1.099-0.182-1.458-0.548-0.359-0.365-0.539-0.868-0.539-1.508 0-0.522 0.109-1.017 0.326-1.482 0.218-0.465 0.544-0.83 0.983-1.096 0.438-0.269 0.918-0.403 1.441-0.403 0.567 0 1.02 0.148 1.359 0.444s0.529 0.686 0.571 1.168l-1.237 0.132c-0.03-0.269-0.114-0.467-0.249-0.594-0.133-0.126-0.308-0.19-0.526-0.19-0.25 0-0.485 0.094-0.702 0.281-0.218 0.187-0.385 0.468-0.503 0.843-0.116 0.371-0.172 0.72-0.172 1.046 0 0.284 0.069 0.503 0.208 0.657 0.14 0.154 0.312 0.231 0.521 0.231s0.409-0.075 0.603-0.226c0.193-0.152 0.344-0.378 0.453-0.68"/>
            <path d="m74.292 7.0126h-1.301l1.392-6.642h1.301l-0.499 2.365c0.294-0.229 0.566-0.394 0.82-0.494 0.253-0.102 0.524-0.153 0.814-0.153 0.391 0 0.699 0.112 0.924 0.335 0.228 0.223 0.34 0.516 0.34 0.879 0 0.193-0.041 0.492-0.126 0.897l-0.589 2.813h-1.301l0.604-2.868c0.062-0.311 0.095-0.51 0.095-0.597 0-0.16-0.05-0.289-0.15-0.386-0.099-0.097-0.235-0.144-0.408-0.145-0.218 0-0.426 0.076-0.625 0.227-0.261 0.199-0.459 0.444-0.594 0.734-0.075 0.16-0.175 0.536-0.3 1.128l-0.397 1.907z"/>
            <path d="m82.416 4.2172l5e-3 -0.131c0-0.356-0.08-0.624-0.24-0.802-0.161-0.178-0.375-0.267-0.644-0.267-0.268 0-0.511 0.101-0.725 0.304-0.211 0.202-0.355 0.501-0.43 0.896h2.034zm1.097 0.793h-3.263l-5e-3 0.118c0 0.32 0.092 0.579 0.273 0.775 0.184 0.196 0.408 0.294 0.669 0.294 0.433 0 0.769-0.224 1.011-0.67l1.164 0.194c-0.225 0.469-0.528 0.82-0.91 1.056-0.378 0.233-0.803 0.349-1.272 0.349-0.647 0-1.172-0.204-1.577-0.612-0.406-0.41-0.608-0.952-0.608-1.626 0-0.658 0.184-1.244 0.548-1.758 0.5-0.694 1.21-1.042 2.135-1.042 0.589 0 1.055 0.183 1.403 0.548 0.349 0.363 0.522 0.872 0.522 1.527 0 0.314-0.031 0.596-0.09 0.847z"/>
            <polygon points="93.261 7.0126 91.879 7.0126 91.731 2.1566 89.311 7.0126 87.902 7.0126 87.653 0.3706 88.99 0.3706 89.047 5.0196 91.326 0.3706 92.808 0.3706 92.962 4.9696 95.151 0.3706 96.474 0.3706"/>
            <path d="m99.3 4.2172l6e-3 -0.131c0-0.356-0.08-0.624-0.241-0.802s-0.374-0.267-0.643-0.267c-0.268 0-0.511 0.101-0.725 0.304-0.211 0.202-0.354 0.501-0.43 0.896h2.033zm1.098 0.793h-3.262l-6e-3 0.118c0 0.32 0.092 0.579 0.273 0.775 0.184 0.196 0.408 0.294 0.669 0.294 0.432 0 0.769-0.224 1.01-0.67l1.165 0.194c-0.225 0.469-0.529 0.82-0.911 1.056-0.377 0.233-0.802 0.349-1.271 0.349-0.648 0-1.173-0.204-1.578-0.612-0.405-0.41-0.607-0.952-0.607-1.626 0-0.658 0.184-1.244 0.549-1.758 0.498-0.694 1.209-1.042 2.134-1.042 0.589 0 1.056 0.183 1.403 0.548 0.349 0.363 0.521 0.872 0.521 1.527 0 0.314-0.03 0.596-0.089 0.847z"/>
            <path d="m102.06 2.2016h1.3l-1.006 4.811h-1.3l1.006-4.811zm0.381-1.831h1.3l-0.245 1.179h-1.301l0.246-1.179z"/>
            <path d="m104.15 3.1664l0.199-0.965h0.634l0.16-0.77 1.489-0.897-0.347 1.667h0.793l-0.199 0.965h-0.798l-0.421 2.016c-0.076 0.365-0.114 0.574-0.114 0.625 0 0.1 0.033 0.178 0.095 0.236 0.064 0.054 0.179 0.081 0.345 0.081 0.057 0 0.199-0.01 0.43-0.031l-0.203 0.965c-0.224 0.045-0.455 0.067-0.69 0.067-0.459 0-0.793-0.087-1.001-0.262-0.209-0.178-0.312-0.425-0.312-0.739 0-0.147 0.054-0.488 0.168-1.023l0.403-1.935h-0.631z"/>
            <path d="m110.69 4.2172l4e-3 -0.131c0-0.356-0.08-0.624-0.24-0.802s-0.374-0.267-0.645-0.267c-0.267 0-0.51 0.101-0.724 0.304-0.21 0.202-0.355 0.501-0.43 0.896h2.035zm1.095 0.793h-3.263l-4e-3 0.118c0 0.32 0.092 0.579 0.273 0.775 0.184 0.196 0.408 0.294 0.67 0.294 0.431 0 0.768-0.224 1.01-0.67l1.164 0.194c-0.225 0.469-0.529 0.82-0.91 1.056-0.378 0.233-0.802 0.349-1.272 0.349-0.648 0-1.173-0.204-1.577-0.612-0.406-0.41-0.608-0.952-0.608-1.626 0-0.658 0.184-1.244 0.547-1.758 0.5-0.694 1.212-1.042 2.136-1.042 0.589 0 1.056 0.183 1.404 0.548 0.348 0.363 0.521 0.872 0.521 1.527 0 0.314-0.031 0.596-0.091 0.847z"/>
            <path d="m113.38 2.2016h1.215l-0.194 0.933c0.453-0.698 0.942-1.046 1.471-1.046 0.188 0 0.387 0.047 0.604 0.14l-0.499 1.065c-0.118-0.042-0.243-0.064-0.375-0.064-0.225 0-0.452 0.085-0.686 0.254-0.229 0.169-0.41 0.396-0.539 0.679-0.131 0.281-0.258 0.728-0.385 1.342l-0.318 1.508h-1.299l1.005-4.811z"/>
            <path d="m117.96 5.0512c0 0.323 0.09 0.586 0.272 0.788 0.184 0.203 0.399 0.304 0.647 0.304 0.218 0 0.424-0.079 0.622-0.236 0.199-0.157 0.363-0.407 0.493-0.752 0.133-0.344 0.199-0.691 0.199-1.042 0-0.341-0.089-0.608-0.267-0.802-0.175-0.196-0.388-0.294-0.639-0.294-0.327 0-0.607 0.151-0.843 0.453-0.322 0.414-0.484 0.941-0.484 1.581zm-1.754 1.961l1.386-6.641h1.305l-0.466 2.22c0.238-0.182 0.461-0.31 0.666-0.385 0.208-0.078 0.435-0.118 0.679-0.118 0.508 0 0.913 0.171 1.22 0.512 0.304 0.338 0.457 0.832 0.457 1.481 0 0.439-0.073 0.865-0.218 1.278-0.142 0.411-0.334 0.746-0.575 1.005-0.239 0.258-0.491 0.449-0.757 0.576-0.263 0.124-0.539 0.186-0.828 0.186-0.689 0-1.195-0.302-1.519-0.906l-0.167 0.792h-1.183z"/>
            <path d="m123.1 2.2016h1.301l-1.007 4.811h-1.3l1.006-4.811zm0.38-1.831h1.301l-0.245 1.179h-1.3l0.244-1.179z"/>
            <polygon points="124.85 7.0126 126.24 0.3706 127.53 0.3706 126.15 7.0126"/>
            <path d="m129.06 5.0556c0 0.344 0.084 0.613 0.258 0.807 0.175 0.193 0.388 0.289 0.642 0.289 0.237 0 0.455-0.079 0.659-0.24 0.205-0.163 0.368-0.41 0.489-0.743 0.123-0.332 0.184-0.651 0.184-0.956 0-0.347-0.093-0.628-0.281-0.842-0.186-0.215-0.402-0.322-0.646-0.322-0.381 0-0.695 0.212-0.94 0.634-0.244 0.423-0.365 0.881-0.365 1.373zm3.003 1.957h-1.232l0.109-0.521c-0.236 0.227-0.469 0.39-0.698 0.489-0.227 0.097-0.484 0.145-0.771 0.145-0.498 0-0.902-0.168-1.214-0.507-0.307-0.341-0.463-0.844-0.463-1.509 0-0.77 0.218-1.466 0.654-2.088 0.434-0.622 1.009-0.933 1.725-0.933 0.647 0 1.131 0.257 1.454 0.77l0.523-2.488h1.3l-1.387 6.642z"/>
            <path d="m134.47 2.2016h1.301l-0.594 2.85c-0.071 0.341-0.108 0.554-0.108 0.638 0 0.139 0.05 0.259 0.153 0.358 0.102 0.1 0.233 0.15 0.394 0.15 0.116 0 0.228-0.021 0.34-0.064 0.113-0.045 0.227-0.111 0.345-0.199 0.116-0.09 0.224-0.193 0.316-0.308 0.094-0.115 0.181-0.266 0.263-0.453 0.058-0.139 0.119-0.366 0.187-0.68l0.479-2.292h1.301l-1.006 4.811h-1.214l0.136-0.652c-0.531 0.51-1.11 0.765-1.735 0.765-0.396 0-0.706-0.113-0.934-0.339-0.227-0.227-0.34-0.53-0.34-0.911 0-0.166 0.052-0.497 0.154-0.992l0.562-2.682z"/>
            <path d="m140.35 2.2016h1.231l-0.127 0.625c0.309-0.266 0.595-0.454 0.862-0.566 0.269-0.115 0.552-0.172 0.847-0.172 0.396 0 0.708 0.113 0.933 0.34 0.231 0.226 0.346 0.526 0.346 0.901 0 0.169-0.051 0.489-0.151 0.96l-0.566 2.723h-1.301l0.572-2.732c0.084-0.407 0.126-0.65 0.126-0.729 0-0.166-0.048-0.296-0.149-0.39-0.097-0.097-0.232-0.144-0.407-0.145-0.191 0-0.403 0.081-0.635 0.241-0.231 0.16-0.415 0.371-0.549 0.633-0.095 0.188-0.205 0.57-0.326 1.147l-0.411 1.975h-1.302l1.007-4.811z"/>
            <path d="m146.64 4.9423c0 0.366 0.082 0.645 0.245 0.838 0.165 0.19 0.373 0.286 0.62 0.286 0.226 0 0.446-0.086 0.656-0.259 0.215-0.172 0.377-0.416 0.491-0.734 0.114-0.317 0.171-0.623 0.172-0.919 0-0.341-0.093-0.616-0.277-0.825-0.184-0.208-0.397-0.312-0.638-0.312-0.233 0-0.448 0.092-0.644 0.276-0.193 0.185-0.354 0.468-0.48 0.852-0.097 0.296-0.145 0.562-0.145 0.797zm-1.531 2.324l1.372 0.199c0 0.14 0.023 0.244 0.069 0.313 0.045 0.073 0.117 0.133 0.217 0.181 0.102 0.051 0.241 0.077 0.416 0.077 0.275 0 0.496-0.054 0.662-0.163 0.124-0.084 0.225-0.22 0.303-0.408 0.049-0.117 0.111-0.374 0.186-0.77l0.046-0.226c-0.451 0.374-0.915 0.561-1.396 0.561-0.471 0-0.858-0.166-1.159-0.498-0.303-0.332-0.455-0.818-0.455-1.459 0-0.564 0.103-1.082 0.31-1.553 0.205-0.472 0.493-0.828 0.865-1.07 0.37-0.241 0.75-0.362 1.137-0.362 0.32 0 0.613 0.085 0.879 0.253 0.265 0.17 0.473 0.407 0.621 0.712l0.181-0.852h1.218l-0.834 4.01c-0.135 0.643-0.25 1.102-0.343 1.377-0.094 0.274-0.201 0.493-0.323 0.657-0.12 0.163-0.273 0.299-0.457 0.407-0.184 0.112-0.401 0.192-0.652 0.241-0.251 0.048-0.523 0.072-0.815 0.072-0.68 0-1.194-0.116-1.541-0.349-0.348-0.233-0.521-0.619-0.521-1.159l0.014-0.191z"/>
        </g>
    </g>
</svg>
