<?xml version="1.0" encoding="UTF-8"?>
<svg version="1.1" viewBox="0 0 96 15" xmlns="http://www.w3.org/2000/svg">
    <title id="logo-title">WissWeit-Logo</title>
    <desc id="logo-desc">Go to startpage.</desc>
    <g fill="none" fill-rule="evenodd">
        <g fill="#154B99">
            <polygon points="19.429 0.9433 12.984 14.198 9.3162 14.198 8.7472 5.4123 4.4472 14.198 0.6362 14.198 0.0312 0.9433 3.6012 0.9433 3.6282 10.067 8.0792 0.9433 11.489 0.9433 11.889 10.067 15.949 0.9433"/>
            <path d="m24.985 0.3466l-0.562 2.431h-3.4l0.561-2.431h3.401zm-0.979 3.854l-2.315 9.998h-3.223l2.315-9.998h3.223z"/>
            <path d="m28.554 14.474c-0.854 0-1.682-0.08-2.483-0.24s-1.415-0.347-1.843-0.561l0.614-2.635h0.294c0.131 0.113 0.293 0.238 0.49 0.374 0.201 0.137 0.487 0.279 0.854 0.427 0.314 0.137 0.679 0.256 1.095 0.357 0.416 0.094 0.864 0.142 1.344 0.142 0.719 0 1.256-0.083 1.612-0.25 0.362-0.166 0.543-0.403 0.543-0.712 0-0.237-0.127-0.418-0.383-0.543-0.255-0.124-0.783-0.278-1.584-0.463-1.36-0.314-2.291-0.694-2.795-1.139-0.499-0.444-0.748-0.999-0.748-1.664 0-1.128 0.504-2.015 1.513-2.662 1.008-0.653 2.373-0.979 4.094-0.98 0.748 0 1.496 0.078 2.244 0.232 0.748 0.149 1.297 0.309 1.647 0.481l-0.587 2.528h-0.276c-0.422-0.327-0.932-0.59-1.532-0.793-0.593-0.207-1.205-0.31-1.834-0.311-0.682 0-1.207 0.083-1.575 0.249-0.362 0.161-0.544 0.41-0.544 0.748 0 0.262 0.158 0.463 0.473 0.605 0.314 0.137 0.809 0.28 1.486 0.428 1.258 0.273 2.163 0.617 2.715 1.032 0.559 0.416 0.837 0.997 0.838 1.746 0 1.115-0.511 1.997-1.531 2.643-1.022 0.641-2.402 0.961-4.141 0.961"/>
            <path d="m40.566 14.474c-0.854 0-1.682-0.08-2.483-0.24-0.802-0.16-1.415-0.347-1.843-0.561l0.614-2.635h0.294c0.131 0.113 0.293 0.238 0.49 0.374 0.201 0.137 0.487 0.279 0.854 0.427 0.314 0.137 0.679 0.256 1.095 0.357 0.416 0.094 0.864 0.142 1.344 0.142 0.719 0 1.256-0.083 1.612-0.25 0.362-0.166 0.543-0.403 0.543-0.712 0-0.237-0.127-0.418-0.383-0.543-0.255-0.124-0.783-0.278-1.584-0.463-1.36-0.314-2.291-0.694-2.795-1.139-0.499-0.444-0.748-0.999-0.748-1.664 0-1.128 0.504-2.015 1.513-2.662 1.008-0.653 2.373-0.979 4.094-0.98 0.748 0 1.496 0.078 2.244 0.232 0.748 0.149 1.297 0.309 1.647 0.481l-0.587 2.528h-0.276c-0.422-0.327-0.932-0.59-1.532-0.793-0.593-0.207-1.205-0.31-1.834-0.311-0.681 0-1.207 0.083-1.575 0.249-0.362 0.161-0.544 0.41-0.544 0.748 0 0.262 0.158 0.463 0.473 0.605 0.314 0.137 0.809 0.28 1.486 0.428 1.258 0.273 2.163 0.617 2.715 1.032 0.559 0.416 0.838 0.997 0.838 1.746 0 1.115-0.511 1.997-1.531 2.643-1.022 0.641-2.402 0.961-4.141 0.961"/>
            <polygon points="68.466 0.9433 62.02 14.198 58.353 14.198 57.782 5.4123 53.483 14.198 49.672 14.198 49.068 0.9433 52.637 0.9433 52.663 10.067 57.114 0.9433 60.525 0.9433 60.925 10.067 64.985 0.9433"/>
            <path d="m72.55 14.465c-1.703 0-3.018-0.376-3.943-1.13-0.926-0.754-1.389-1.796-1.389-3.125 0-0.908 0.151-1.741 0.453-2.501 0.303-0.76 0.74-1.428 1.31-2.003 0.546-0.558 1.227-1 2.048-1.327 0.818-0.326 1.717-0.489 2.697-0.489 1.489 0 2.611 0.303 3.365 0.908 0.76 0.6 1.139 1.486 1.139 2.661 0 0.404-0.041 0.799-0.124 1.185-0.077 0.385-0.181 0.768-0.312 1.148h-7.425v0.107 0.097c0 0.695 0.244 1.238 0.73 1.629 0.486 0.393 1.232 0.588 2.234 0.588 0.701 0 1.363-0.118 1.987-0.355 0.628-0.238 1.173-0.502 1.637-0.793h0.357l-0.598 2.573c-0.623 0.272-1.278 0.477-1.967 0.614-0.688 0.142-1.422 0.213-2.199 0.213zm2.449-6.552c0.018-0.106 0.03-0.204 0.035-0.294 0.012-0.089 0.018-0.18 0.018-0.275 0-0.469-0.147-0.828-0.436-1.077-0.291-0.249-0.711-0.374-1.255-0.374-0.659 0-1.214 0.177-1.665 0.534-0.445 0.356-0.784 0.851-1.015 1.486h4.318z"/>
            <path d="m86.128 0.3466l-0.561 2.431h-3.401l0.562-2.431h3.4zm-0.979 3.854l-2.316 9.998h-3.223l2.316-9.998h3.223z"/>
            <path d="m90.278 14.394c-1.11 0-1.902-0.181-2.377-0.543-0.476-0.367-0.712-0.91-0.712-1.629 0-0.189 0.015-0.373 0.044-0.552 0.03-0.177 0.067-0.385 0.116-0.623l1.086-4.736h-1.318l0.49-2.109h1.318l0.659-2.858h3.214l-0.66 2.858h3.01l-0.49 2.109h-3.009l-0.828 3.605c-0.06 0.25-0.116 0.502-0.169 0.757-0.054 0.249-0.08 0.463-0.08 0.641 0 0.356 0.098 0.605 0.293 0.748 0.202 0.137 0.511 0.205 0.926 0.205 0.166 0 0.383-0.029 0.65-0.089 0.274-0.065 0.49-0.137 0.65-0.214h0.267l-0.499 2.146c-0.361 0.089-0.744 0.157-1.148 0.204-0.397 0.054-0.875 0.08-1.433 0.08"/>
        </g>
    </g>
</svg>
